<svg version="1.1" xmlns="http://www.w3.org/2000/svg" xmlns:xlink="http://www.w3.org/1999/xlink" width="410.95605" height="262.37942" viewBox="0,0,410.95605,262.37942"><g transform="translate(-34.53346,-47.56029)"><g data-paper-data="{&quot;isPaintingLayer&quot;:true}" fill-rule="nonzero" stroke-linejoin="miter" stroke-miterlimit="10" stroke-dasharray="" stroke-dashoffset="0" style="mix-blend-mode: normal"><g><g><g stroke="#000000" stroke-width="5"><path d="M168.89336,179.75856c0,36.9798 23.62716,61.4613 -31.69332,61.4613c-55.32047,0 -100.16658,-29.97806 -100.16658,-66.95785c0,-36.9798 44.84611,-66.95785 100.16659,-66.95785c55.32047,0 31.69332,35.47461 31.69332,72.45441z" fill="#ffffff" stroke-linecap="butt"/><path d="M37.98215,166.41061h198.27699" fill="none" stroke-linecap="round"/></g><path d="M137.26324,109.2041c0.69848,0 1.34005,0.2437 1.84431,0.6507c2.41998,0.00344 4.84092,0.00227 7.26188,-0.06173c3.35299,-0.08864 6.55184,-0.46105 9.88924,0.25349c3.07217,0.65775 6.06152,1.61524 8.99362,2.75128c0.41647,-0.26636 0.90457,-0.43059 1.42897,-0.45734l3.30875,-0.19458l0.00423,0.07176c0.2255,-0.02297 0.45266,-0.0342 0.6818,-0.03162c2.94099,0.0331 5.40708,2.3431 8.21254,3.22625c3.82971,1.20558 8.08068,1.89017 11.79173,3.41562c2.68113,1.1021 4.03973,2.59053 6.4815,4.12618c3.01265,1.89468 6.35236,2.86373 9.72472,3.88157l3.36413,1.66951c0,0 2.56284,1.28113 1.3622,3.84396c0.16302,-0.02804 0.33064,-0.04265 0.50166,-0.04265c0.62975,0 1.21322,0.19809 1.69152,0.53536c0.69494,-0.03777 1.49627,0.19639 2.2507,1.07021c0.42133,0.48801 0.64315,0.96139 0.73272,1.40307l0.62198,0.51819c1.29494,0.81861 6.1488,3.70568 7.31231,5.1339c2.41578,2.96537 4.27963,6.61824 5.65536,10.34072l0.00596,0.00595l0.31227,-0.24026l1.94168,2.5236c0.39227,0.49947 0.62621,1.12919 0.62621,1.81354c0,1.35643 -0.91904,2.4982 -2.1684,2.83661c0.06935,0.10111 0.14127,0.20248 0.21593,0.3041c0.87336,-0.0003 2.46279,0.29292 2.87457,2.35242c0.57615,2.88155 -2.30541,3.4577 -2.30541,3.4577l-1.91968,0.23013c-2.31956,-0.29121 -4.5902,-0.37355 -6.85883,-0.38555c-0.32942,0.25224 -0.71377,0.43633 -1.132,0.53122l-3.07364,0.76823l-0.05658,-0.22637l-0.53946,0.31177c-2.25654,-0.34922 -4.42474,-0.78894 -6.54456,-1.31483c-1.40706,0.03383 -2.80446,-0.00012 -4.11588,-0.44955c-0.00599,-0.00205 -0.01196,-0.0041 -0.01795,-0.00616l-0.00032,0.00508l-3.1118,-0.19443c-0.41757,-0.02265 -0.81195,-0.1325 -1.16526,-0.31162l-2.39369,1.09913c-3.91808,-0.00641 -7.67929,-0.78658 -11.56836,-0.78317c-6.84303,0.006 -13.58473,1.55704 -20.44347,1.56487c-6.55256,-0.40945 -13.11938,-0.48043 -19.69161,-0.41922c-0.26847,0.08077 -0.55313,0.12419 -0.84793,0.12419c-0.27232,0 -0.53598,-0.03704 -0.78623,-0.10636c-11.1612,0.13875 -22.33593,0.60938 -33.48097,0.40207c-5.17806,-0.09632 -10.40841,0.2742 -15.57955,-0.00449c-4.51839,-0.24351 -7.69396,-0.81965 -12.14414,0.13801c0,0 -2.31653,0.48757 -3.22883,-1.4917l-2.76186,0.1826c-4.76569,0 -9.4437,-0.7237 -14.19015,-0.39696c-0.46541,0.03204 -0.92377,0.08125 -1.37662,0.14376c-0.08643,0.01758 -0.17424,0.03137 -0.26325,0.04119l-0.11962,0.01495c-3.17748,0.49257 -6.1021,1.59477 -9.32006,1.9468c-0.30877,0.03377 -0.61775,0.05634 -0.92677,0.06863c-0.68498,0.14655 -1.37313,0.25247 -2.06406,0.30549c-2.33432,0.17912 -5.10298,1.30499 -7.06665,0.11242c-0.54643,0.28895 -1.26981,0.40858 -2.2097,0.11479c-2.80476,-0.87669 -1.92806,-3.68145 -1.92806,-3.68145c0.15436,-0.49364 0.30799,-0.98756 0.46052,-1.48183c-0.32359,0.1294 -0.64718,0.25882 -0.97077,0.38823c0,0 -2.19362,0.87724 -3.43364,-0.90831c0.76664,-1.57711 1.27257,-3.14396 1.53086,-4.66046c1.37555,-0.55009 2.7511,-1.10018 4.12665,-1.65027l0.18849,-0.52435c0,0 0.01592,-0.01592 0.04637,-0.04357c0.0535,-0.57754 0.25901,-1.30922 0.8828,-1.85273l0.96095,-4.41936l0.07992,0.01737c0.06393,-0.29699 0.14819,-0.59039 0.25671,-0.87953c0.41506,-1.10583 8.43673,-7.38059 9.60979,-8.32321l0.00546,-0.00163c0.86842,-0.87869 1.76719,-1.62598 2.69856,-2.15753c0.06918,-0.03948 0.13871,-0.07823 0.20857,-0.11626l-0.02696,-0.03512l1.67901,-1.28868c0.06399,-1.28045 1.12208,-2.16199 1.12208,-2.16199c2.47768,-2.05879 5.06829,-3.47407 7.74744,-4.68721c0.21643,-1.00052 0.96042,-1.68236 0.96042,-1.68236c3.56355,-3.25989 6.62939,-6.81892 11.31419,-8.60523c4.80083,-1.83055 11.02679,-2.25699 16.25645,-2.79773c1.14548,-0.42817 2.31117,-0.824 3.50316,-1.17916c7.41058,-2.20804 15.19271,-1.81658 22.76477,-3.23324c4.15725,-0.45912 8.32361,-0.54535 12.49426,-0.55728c0.50404,-0.40631 1.14504,-0.64954 1.84285,-0.64954z" fill="#000000" stroke="none" stroke-width="0.5" stroke-linecap="butt"/></g><g><g stroke="#000000" stroke-width="5"><path d="M442.9895,174.26567c0,36.9798 -44.84611,66.95785 -100.16658,66.95785c-55.32047,0 -31.69331,-29.47836 -31.69331,-66.45816c0,-36.9798 -23.62716,-67.45755 31.69331,-67.45755c55.32047,0 100.16659,29.97806 100.16659,66.95786z" fill="#ffffff" stroke-linecap="butt"/><path d="M441.88202,166.41426h-198.27699" fill="none" stroke-linecap="round"/></g><path d="M342.88611,109.20776c0.69848,0 1.34004,0.2437 1.8443,0.6507c2.41998,0.00344 4.84093,0.00227 7.26189,-0.06172c3.35299,-0.08864 6.55183,-0.46105 9.88924,0.25348c3.07217,0.65775 6.06152,1.61524 8.99362,2.75128c0.41647,-0.26636 0.90457,-0.43059 1.42896,-0.45734l3.30876,-0.19458l0.00423,0.07176c0.2255,-0.02297 0.45267,-0.0342 0.6818,-0.03162c2.94099,0.0331 5.40708,2.3431 8.21254,3.22625c3.82971,1.20558 8.08067,1.89017 11.79172,3.41562c2.68113,1.1021 4.03974,2.59054 6.4815,4.12619c3.01265,1.89468 6.35236,2.86373 9.72472,3.88156l3.36413,1.66951c0,0 2.56284,1.28112 1.36219,3.84396c0.16302,-0.02804 0.33064,-0.04265 0.50167,-0.04265c0.62975,0 1.21322,0.19809 1.69152,0.53535c0.69495,-0.03777 1.49627,0.19639 2.2507,1.07021c0.42133,0.48801 0.64315,0.96139 0.73272,1.40307l0.62199,0.5182c1.29494,0.81861 6.14879,3.70568 7.31231,5.13389c2.41578,2.96537 4.27964,6.61824 5.65537,10.34072l0.00595,0.00594l0.31227,-0.24026l1.94168,2.5236c0.39227,0.49947 0.6262,1.12918 0.6262,1.81354c0,1.35643 -0.91904,2.4982 -2.16839,2.83662c0.06935,0.10111 0.14126,0.20248 0.21592,0.3041c0.87336,-0.0003 2.46279,0.29292 2.87458,2.35242c0.57615,2.88155 -2.3054,3.45771 -2.3054,3.45771l-1.91969,0.23013c-2.31955,-0.29121 -4.5902,-0.37355 -6.85883,-0.38555c-0.32941,0.25224 -0.71377,0.43634 -1.132,0.53122l-3.07363,0.76823l-0.05658,-0.22637l-0.53947,0.31176c-2.25655,-0.34922 -4.42474,-0.78894 -6.54456,-1.31483c-1.40706,0.03383 -2.80446,-0.00011 -4.11588,-0.44955c-0.00599,-0.00205 -0.01197,-0.0041 -0.01795,-0.00617l-0.00032,0.00509l-3.11181,-0.19443c-0.41757,-0.02265 -0.81196,-0.1325 -1.16526,-0.31162l-2.39369,1.09913c-3.91808,-0.00641 -7.67929,-0.78658 -11.56836,-0.78317c-6.84303,0.006 -13.58473,1.55704 -20.44347,1.56487c-6.55257,-0.40945 -13.11939,-0.48043 -19.69162,-0.41922c-0.26848,0.08077 -0.55313,0.12419 -0.84794,0.12419c-0.27232,0 -0.53598,-0.03704 -0.78623,-0.10636c-11.1612,0.13875 -22.33593,0.60938 -33.48097,0.40207c-5.17805,-0.09632 -10.40841,0.2742 -15.57955,-0.00449c-4.51839,-0.24351 -7.69396,-0.81965 -12.14414,0.13801c0,0 -2.31653,0.48757 -3.22883,-1.4917l-2.76186,0.1826c-4.76569,0 -9.4437,-0.7237 -14.19016,-0.39696c-0.46542,0.03204 -0.92377,0.08124 -1.37662,0.14376c-0.08643,0.01758 -0.17424,0.03138 -0.26325,0.0412l-0.11962,0.01494c-3.17748,0.49257 -6.10211,1.59477 -9.32006,1.9468c-0.30878,0.03377 -0.61775,0.05635 -0.92677,0.06863c-0.68498,0.14655 -1.37313,0.25247 -2.06405,0.30549c-2.33432,0.17912 -5.10299,1.30498 -7.06666,0.11242c-0.54643,0.28895 -1.2698,0.40859 -2.20969,0.1148c-2.80476,-0.87669 -1.92807,-3.68145 -1.92807,-3.68145c0.15436,-0.49364 0.30799,-0.98756 0.46052,-1.48183c-0.32359,0.1294 -0.64719,0.25882 -0.97078,0.38823c0,0 -2.19361,0.87724 -3.43364,-0.90831c0.76665,-1.57711 1.27257,-3.14396 1.53086,-4.66046c1.37554,-0.55009 2.7511,-1.10018 4.12664,-1.65027l0.18849,-0.52436c0,0 0.01592,-0.01592 0.04637,-0.04357c0.0535,-0.57754 0.25901,-1.30921 0.88279,-1.85272l0.96096,-4.41936l0.07991,0.01738c0.06393,-0.29699 0.14819,-0.59039 0.25671,-0.87953c0.41506,-1.10583 8.43673,-7.38059 9.6098,-8.32322l0.00546,-0.00162c0.86842,-0.87869 1.76718,-1.62598 2.69855,-2.15753c0.06919,-0.03948 0.13871,-0.07823 0.20856,-0.11626l-0.02695,-0.03512l1.67901,-1.28868c0.06399,-1.28045 1.12208,-2.16198 1.12208,-2.16198c2.47767,-2.05879 5.06829,-3.47407 7.74744,-4.68721c0.21643,-1.00052 0.96042,-1.68236 0.96042,-1.68236c3.56356,-3.25989 6.62939,-6.81892 11.31419,-8.60523c4.80083,-1.83055 11.0268,-2.257 16.25645,-2.79774c1.14549,-0.42817 2.31117,-0.824 3.50315,-1.17916c7.41059,-2.20804 15.19272,-1.81658 22.76477,-3.23323c4.15725,-0.45912 8.32361,-0.54536 12.49426,-0.55729c0.50404,-0.40631 1.14504,-0.64954 1.84286,-0.64954z" fill="#000000" stroke="none" stroke-width="0.5" stroke-linecap="butt"/></g></g><path d="M117.20722,200.07906c0,-64.04002 51.91469,-115.95471 115.95472,-115.95471c64.04002,0 115.95471,51.91469 115.95471,115.95471c0,64.04002 -50.41319,94.93369 -114.45321,94.93369c-64.04002,0 -117.45621,-30.89367 -117.45621,-94.93369z" fill="#ffffff" stroke="#000000" stroke-width="5" stroke-linecap="butt"/><path d="M162.22212,164.29407c0,-18.24364 14.78939,-33.03304 33.03303,-33.03304c18.24364,0 33.03303,14.7894 33.03303,33.03304c0,18.24364 -14.78939,33.03303 -33.03303,33.03303c-18.24364,0 -33.03303,-14.78939 -33.03303,-33.03303z" fill="#ffffff" stroke="#000000" stroke-width="5" stroke-linecap="butt"/><path d="M174.10024,165.38567c0,-11.33329 9.18744,-20.52074 20.52074,-20.52074c11.33329,0 20.52075,9.18745 20.52075,20.52074c0,11.33329 -9.18745,20.52074 -20.52075,20.52074c-11.33329,0 -20.52074,-9.18745 -20.52074,-20.52074z" fill="#000000" stroke="none" stroke-width="0" stroke-linecap="butt"/><path d="M198.07862,172.66723c0,-1.38071 1.11929,-2.5 2.5,-2.5c1.38071,0 2.5,1.11929 2.5,2.5c0,1.38071 -1.11929,2.5 -2.5,2.5c-1.38071,0 -2.5,-1.11929 -2.5,-2.5z" fill="#ffffff" stroke="none" stroke-width="0.5" stroke-linecap="butt"/><path d="M196.65436,172.77276c0,-2.45197 1.98771,-4.43968 4.43968,-4.43968c2.45197,0 4.43968,1.98771 4.43968,4.43968c0,2.45197 -1.98772,4.43968 -4.43968,4.43968c-2.45197,0 -4.43968,-1.98772 -4.43968,-4.43968z" fill="#ffffff" stroke="none" stroke-width="0" stroke-linecap="butt"/><path d="M435.72197,162.82174c0,-0.92477 0.50212,-1.73225 1.24858,-2.16472c-0.06056,0.01643 -0.0954,0.0234 -0.0954,0.0234l-1.41488,0.28009c-8.16014,2.0393 -16.40148,4.56283 -24.788,5.56628c-7.38821,0.88401 -14.68583,-0.09902 -22.02215,-0.91416c0,0 -2.48471,-0.27607 -2.20863,-2.76078c0.27608,-2.48471 2.76078,-2.20863 2.76078,-2.20863c6.93313,0.77035 13.86064,1.76362 20.84374,0.92296c8.18892,-0.98583 16.23355,-3.46363 24.20158,-5.45638l1.64697,-0.33228c0,0 2.45146,-0.49029 2.94175,1.96116c0.30511,1.52556 -0.52902,2.29162 -1.20264,2.65267c0.18866,-0.0455 0.38566,-0.06961 0.58829,-0.06961c1.38071,0 2.5,1.11929 2.5,2.5c0,1.38071 -1.11929,2.5 -2.5,2.5c-1.38071,0 -2.5,-1.11929 -2.5,-2.5z" fill="#000000" stroke="none" stroke-width="0.5" stroke-linecap="butt"/><path d="M79.71179,162.55633c0,2.5 -2.5,2.5 -2.5,2.5l-2.38047,-0.20214c-3.68703,-1.68463 -6.3341,-0.38297 -9.94995,1.07008c0,0 -2.3212,0.92848 -3.24967,-1.39271c-0.92847,-2.32119 1.39272,-3.24967 1.39272,-3.24967c4.97608,-1.982 8.64451,-3.12537 13.7765,-1.02343l0.41088,-0.20213c0,0 2.5,0 2.5,2.5z" fill="#000000" stroke="none" stroke-width="0.5" stroke-linecap="butt"/><g fill="#ffffff" stroke="#000000" stroke-width="5" stroke-linecap="round"><path d="M191.70681,93.73334c-4.28748,-0.12485 -9.48829,-0.2763 -9.48829,-0.2763l8.13464,-41.19697c0,0 21.50896,-4.85726 26.90866,-0.13644c8.83127,7.72096 16.43662,32.8325 16.43662,32.8325c0,0 -32.97199,9.03986 -41.99163,8.77721z"/><path d="M247.71852,84.95614c0,0 1.30792,-22.77035 8.50371,-28.4061c8.38997,-6.57104 39.9605,-3.15023 39.9605,-3.15023l3.51571,49.55725c0,0 -8.20081,-6.84855 -12.48829,-6.7237c-9.01964,0.26265 -39.49163,-11.27721 -39.49163,-11.27721z" data-paper-data="{&quot;index&quot;:null}"/></g><path d="M300.008,104.30581l42.97408,68.21282l1.87834,30.81449c0,0 -63.8745,16.77689 -93.09309,-12.01202c-29.21859,-28.78891 -6.00601,-105.10511 -6.00601,-105.10511z" fill="#000000" stroke="#000000" stroke-width="5" stroke-linecap="round"/><path d="M329.71857,141.61741c-0.04544,-0.05348 -0.08864,-0.10945 -0.12941,-0.16814c-0.01392,0.03223 -0.02851,0.06411 -0.04374,0.09562c0.05854,0.0229 0.11634,0.04695 0.17315,0.07252zM330.61178,142.29586c0.69505,0.77175 1.1247,1.79129 1.85975,2.53413c0.61753,0.62407 1.46398,1.02058 2.16883,1.54676c0.13366,-0.88805 0.1508,-1.71975 -0.42968,-2.30744c-0.98495,-0.9972 -2.4868,-1.19651 -3.59891,-1.77344zM336.96215,159.16981c0.19521,0.87536 0.52582,1.71828 1.07076,2.51063c-0.37742,-0.81211 -0.73567,-1.6516 -1.07076,-2.51063zM325.14509,133.25902c1.38525,-0.50938 2.55155,0.65691 2.55155,0.65691l0.45796,0.68416l0.00012,-0.00109c2.24509,1.39771 4.3719,2.97786 6.59189,4.41509c1.08479,0.7023 2.57329,0.90464 3.36429,1.92656c1.89591,2.44939 0.92552,4.74667 1.2133,7.39801c0.29104,2.68143 1.11322,5.82762 1.94385,8.40395c0.43725,1.3562 1.50515,2.58582 1.47978,4.01054c-0.03048,1.71187 -1.0919,3.24553 -1.63786,4.8683c-1.74125,0.11306 -3.57124,0.8995 -5.22375,0.33919c-4.86836,-1.6507 -4.28098,-7.93035 -4.27181,-11.8595c0.0005,-0.21619 0.17104,-3.53882 -0.26484,-4.07415c-0.61669,-0.75742 -1.71843,-0.97536 -2.41357,-1.66148c-0.7568,-0.74699 -1.07313,-1.88488 -1.88049,-2.5769c-0.82691,-0.70879 -2.15116,-0.71979 -2.89441,-1.51587c-2.61786,-2.80399 -1.59498,-3.90734 -2.6433,-7.09558c-0.97955,-2.97907 -3.1411,-4.56169 -4.58571,-7.083c-0.49469,-0.86341 -0.31855,-1.996 -0.76397,-2.88583c-0.50889,-1.01663 -1.54028,-1.7105 -2.04638,-2.72852c-0.85766,-1.72517 -1.15426,-3.69487 -2.02511,-5.41342c0,0 -1.11803,-2.23606 1.11804,-3.3541c2.23607,-1.11804 3.3541,1.11803 3.3541,1.11803c0.86813,1.75593 1.18735,3.75079 2.06766,5.50063c0.51093,1.0156 1.53844,1.71142 2.04638,2.72852c0.39322,0.78739 0.16467,1.80645 0.60028,2.5712c0.9892,1.73657 2.57478,3.10238 3.47121,4.88861c0.12484,0.24875 0.25704,0.49454 0.39079,0.73974z" fill="#000000" stroke="none" stroke-width="0.5" stroke-linecap="butt"/><path d="M253.85241,159.74427c0,-18.24364 14.78939,-33.03303 33.03303,-33.03303c18.24364,0 33.03303,14.7894 33.03303,33.03304c0,18.24364 -14.78939,33.03304 -33.03303,33.03304c-18.24364,0 -33.03303,-14.7894 -33.03303,-33.03304z" fill="#ffffff" stroke="#000000" stroke-width="5" stroke-linecap="butt"/><path d="M266.41265,161.51801c0,-11.33329 9.18744,-20.52075 20.52074,-20.52075c11.3333,0 20.52075,9.18745 20.52075,20.52075c0,11.33329 -9.18745,20.52074 -20.52075,20.52074c-11.33329,0 -20.52074,-9.18745 -20.52074,-20.52074z" fill="#000000" stroke="none" stroke-width="0" stroke-linecap="butt"/><path d="M291.27317,167.22936c0,-2.45197 1.98771,-4.43968 4.43968,-4.43968c2.45197,0 4.43969,1.98771 4.43969,4.43968c0,2.45197 -1.98772,4.43968 -4.43969,4.43968c-2.45197,0 -4.43968,-1.98772 -4.43968,-4.43968z" fill="#ffffff" stroke="none" stroke-width="0" stroke-linecap="butt"/><path d="M371.88745,260.39016c0,27.36546 -58.1492,49.54955 -129.87988,49.54955c-71.73068,0 -129.87988,-22.18409 -129.87988,-49.54955c0,-27.36546 58.1492,-49.54955 129.87988,-49.54955c71.73068,0 129.87988,22.18409 129.87988,49.54955z" fill="#ffe6fc" stroke="none" stroke-width="0" stroke-linecap="butt"/><path d="M210.06381,263.33333c0,-14.92661 12.10041,-27.02702 27.02703,-27.02702c14.92661,0 27.02703,12.10041 27.02703,27.02702c0,14.92662 -12.10042,27.02702 -27.02703,27.02702c-14.92661,0 -27.02703,-12.10041 -27.02703,-27.02702z" fill="none" stroke="#000000" stroke-width="5" stroke-linecap="butt"/></g></g></svg>